<?xml version="1.0" encoding="UTF-8"?>
<svg id="Layer_1" data-name="Layer 1" xmlns="http://www.w3.org/2000/svg" viewBox="0 0 476.94 133.79">
  <defs>
    <style>
      .cls-1 {
        fill: #fff;
      }

      .cls-2 {
        fill: #f3e91e;
      }
    </style>
  </defs>
  <path class="cls-2" d="M407.81,54.31c0,28.5-23.11,51.61-51.62,51.61-8.71,0-16.92-2.16-24.11-5.97,1.81-2.21,2.9-5.03,2.9-8.11,0-7.07-5.73-12.8-12.8-12.8-3.53,0-6.73,1.43-9.04,3.74-5.41-8.16-8.56-17.95-8.56-28.47,0-28.5,23.11-51.61,51.61-51.61s51.62,23.11,51.62,51.61Z"/>
  <g>
    <path d="M329.67,66.79v-21.63l-3.86,1.75-2.03-4.81,8.07-3.54c.56-.21,1.02-.32,1.39-.32.77,0,1.39.25,1.87.74.48.49.72.99.72,1.49v26.33h-6.16Z"/>
    <path d="M339.81,52.83c0-2.01.32-3.91.95-5.69.64-1.78,1.5-3.33,2.6-4.67,1.1-1.34,2.38-2.39,3.84-3.16,1.46-.77,3.02-1.15,4.69-1.15s3.24.38,4.71,1.15c1.47.77,2.76,1.82,3.86,3.16,1.1,1.34,1.97,2.9,2.6,4.67.64,1.78.95,3.67.95,5.69s-.32,3.92-.95,5.73c-.64,1.8-1.51,3.37-2.6,4.69-1.1,1.33-2.39,2.38-3.86,3.16-1.47.78-3.04,1.17-4.71,1.17s-3.24-.39-4.69-1.17c-1.46-.78-2.74-1.84-3.84-3.16-1.1-1.33-1.97-2.89-2.6-4.69-.64-1.8-.95-3.71-.95-5.73ZM346.18,52.83c0,1.27.15,2.47.46,3.58s.72,2.08,1.23,2.9c.52.82,1.12,1.47,1.81,1.95.69.48,1.43.72,2.23.72s1.54-.24,2.25-.72c.7-.48,1.31-1.13,1.83-1.95.52-.82.93-1.79,1.23-2.9s.46-2.31.46-3.58-.15-2.46-.46-3.56c-.3-1.1-.72-2.06-1.23-2.88-.52-.82-1.13-1.47-1.83-1.95-.7-.48-1.45-.72-2.25-.72s-1.54.24-2.23.72c-.69.48-1.29,1.13-1.81,1.95-.52.82-.93,1.78-1.23,2.88-.3,1.1-.46,2.29-.46,3.56Z"/>
    <path d="M376.32,57.84l-5.81,8.95h-7.56l9.82-14.2-9.42-13.64h7.56l5.41,8.35,5.37-8.35h7.56l-9.39,13.64,9.78,14.2h-7.56l-5.77-8.95Z"/>
  </g>
  <circle class="cls-2" cx="314.6" cy="99.69" r="11.01"/>
  <g>
    <path class="cls-1" d="M66.29,27.23h41.41v11.04h-14.59v44.17h-12.22v-44.17h-14.59v-11.04Z"/>
    <path class="cls-1" d="M114.4,82.51V27.15h12.22v22.16h22.63v-22.16h12.22v55.36h-12.22v-22.16h-22.63v22.16h-12.22Z"/>
    <path class="cls-1" d="M182.38,27.23v55.21h-12.22V27.23h12.22Z"/>
    <path class="cls-1" d="M191.06,33.06c0-1.79.63-3.31,1.89-4.57,1.26-1.26,2.79-1.89,4.57-1.89,1.05,0,2.09.29,3.12.87,1.02.58,2.06,1.55,3.12,2.92l24.06,30.28V27.23h12.22v49.37c0,1.79-.63,3.31-1.89,4.57-1.26,1.26-2.79,1.89-4.57,1.89-1.05,0-2.09-.29-3.12-.87-1.03-.58-2.07-1.55-3.12-2.92l-24.06-30.28v33.44h-12.22v-49.37Z"/>
    <path class="cls-1" d="M260.14,27.23v23.66l19.17-23.66h14.91l-20.03,23.34,21.85,31.86h-14.2l-15.46-22.79-6.23,7.26v15.54h-12.22V27.23h12.22Z"/>
    <path class="cls-1" d="M66.63,116.74c0-1.98.35-3.84,1.06-5.58.71-1.73,1.67-3.26,2.89-4.57,1.22-1.31,2.66-2.34,4.3-3.08s3.41-1.12,5.28-1.12,3.63.37,5.26,1.12c1.63.74,3.06,1.77,4.3,3.08v-3.24h5.05v26.56h-5.05v-3.03c-1.24,1.31-2.67,2.34-4.3,3.08-1.63.74-3.38,1.12-5.26,1.12s-3.64-.37-5.28-1.12c-1.65-.74-3.08-1.77-4.3-3.08-1.22-1.31-2.19-2.83-2.89-4.57-.71-1.73-1.06-3.59-1.06-5.58ZM71.68,116.69c0,1.31.24,2.57.72,3.77.48,1.2,1.12,2.26,1.94,3.16.81.9,1.78,1.62,2.9,2.15,1.12.53,2.31.8,3.59.8s2.4-.27,3.48-.8c1.08-.53,2.02-1.25,2.82-2.15s1.43-1.96,1.91-3.16c.48-1.2.72-2.46.72-3.77s-.24-2.55-.72-3.72c-.48-1.17-1.12-2.2-1.91-3.11s-1.74-1.62-2.82-2.15c-1.08-.53-2.24-.8-3.48-.8s-2.47.27-3.59.8c-1.12.53-2.08,1.25-2.9,2.15-.81.9-1.46,1.94-1.94,3.11-.48,1.17-.72,2.41-.72,3.72Z"/>
    <path class="cls-1" d="M118.74,114.45c0-1.17-.18-2.21-.53-3.13-.35-.92-.84-1.7-1.46-2.34-.62-.64-1.35-1.12-2.18-1.46-.83-.34-1.73-.5-2.68-.5-1.03,0-1.98.2-2.87.58-.89.39-1.66.92-2.31,1.59-.66.67-1.17,1.46-1.54,2.36-.37.9-.56,1.87-.56,2.9v15.46h-5.05v-26.56h5.05v3.19c1.06-1.24,2.27-2.22,3.61-2.95,1.35-.72,2.87-1.09,4.57-1.09,1.49,0,2.89.28,4.22.85,1.33.57,2.5,1.35,3.51,2.36,1.01,1.01,1.81,2.22,2.39,3.64.58,1.42.88,2.99.88,4.73v15.83h-5.05v-15.46Z"/>
    <path class="cls-1" d="M127.24,116.74c0-1.98.35-3.84,1.06-5.58.71-1.73,1.67-3.26,2.89-4.57,1.22-1.31,2.66-2.34,4.3-3.08s3.41-1.12,5.28-1.12,3.63.37,5.26,1.12c1.63.74,3.06,1.77,4.3,3.08v-13.92h5.05v37.23h-5.05v-3.03c-1.24,1.31-2.67,2.34-4.3,3.08-1.63.74-3.38,1.12-5.26,1.12s-3.64-.37-5.28-1.12c-1.65-.74-3.08-1.77-4.3-3.08-1.22-1.31-2.19-2.83-2.89-4.57-.71-1.73-1.06-3.59-1.06-5.58ZM132.28,116.69c0,1.31.24,2.57.72,3.77.48,1.2,1.12,2.26,1.94,3.16.81.9,1.78,1.62,2.9,2.15,1.12.53,2.31.8,3.59.8s2.4-.27,3.48-.8c1.08-.53,2.02-1.25,2.82-2.15s1.43-1.96,1.91-3.16c.48-1.2.72-2.46.72-3.77s-.24-2.55-.72-3.72c-.48-1.17-1.12-2.2-1.91-3.11s-1.74-1.62-2.82-2.15c-1.08-.53-2.24-.8-3.48-.8s-2.47.27-3.59.8c-1.12.53-2.08,1.25-2.9,2.15-.81.9-1.46,1.94-1.94,3.11-.48,1.17-.72,2.41-.72,3.72Z"/>
    <path class="cls-1" d="M204.74,108.29c1.2,0,2.13.32,2.79.96.65.64.98,1.56.98,2.76,0,2.62-.5,5.08-1.51,7.38s-2.37,4.31-4.09,6.03-3.73,3.07-6.03,4.06c-2.3.99-4.76,1.49-7.38,1.49s-5.14-.52-7.46-1.57c-2.32-1.04-4.36-2.45-6.11-4.22-1.75-1.77-3.13-3.86-4.14-6.27-1.01-2.41-1.51-4.96-1.51-7.65s.51-5.22,1.54-7.6c1.03-2.37,2.42-4.45,4.17-6.24,1.75-1.79,3.81-3.2,6.16-4.22,2.35-1.03,4.86-1.54,7.52-1.54,2.8,0,5.4.56,7.81,1.67,2.41,1.12,4.51,2.63,6.32,4.54l-5.63,4.67c-1.1-1.13-2.36-2.02-3.8-2.66-1.43-.64-3-.96-4.7-.96s-3.17.32-4.62.96c-1.45.64-2.73,1.51-3.82,2.63-1.1,1.12-1.96,2.43-2.58,3.93-.62,1.51-.93,3.11-.93,4.81s.31,3.3.93,4.81c.62,1.51,1.47,2.82,2.55,3.93,1.08,1.12,2.34,2,3.77,2.66,1.43.66,2.97.98,4.59.98,1.35,0,2.63-.22,3.85-.66,1.22-.44,2.33-1.05,3.32-1.83.99-.78,1.86-1.71,2.6-2.79.74-1.08,1.29-2.26,1.65-3.53h-10.15v-6.53h13.92Z"/>
    <path class="cls-1" d="M227.2,108.98c-2.34,0-4.16.66-5.47,1.97-1.31,1.31-1.97,3.03-1.97,5.15v13.81h-7.01v-26.56h7.01v3.03c.85-1.24,1.95-2.2,3.29-2.87,1.35-.67,2.73-1.01,4.14-1.01v6.48Z"/>
    <path class="cls-1" d="M228.11,116.74c0-1.98.38-3.84,1.14-5.58.76-1.73,1.81-3.26,3.13-4.57,1.33-1.31,2.88-2.34,4.65-3.08s3.67-1.12,5.68-1.12,3.91.37,5.68,1.12,3.32,1.77,4.65,3.08c1.33,1.31,2.37,2.83,3.13,4.57.76,1.73,1.14,3.59,1.14,5.58s-.38,3.84-1.14,5.58c-.76,1.73-1.81,3.26-3.13,4.57-1.33,1.31-2.88,2.34-4.65,3.08-1.77.74-3.67,1.12-5.68,1.12s-3.91-.37-5.68-1.12c-1.77-.74-3.32-1.77-4.65-3.08-1.33-1.31-2.37-2.83-3.13-4.57-.76-1.73-1.14-3.59-1.14-5.58ZM234.8,116.69c0,1.1.21,2.14.64,3.13.42.99.99,1.87,1.7,2.63.71.76,1.55,1.36,2.52,1.81.97.44,2.01.66,3.11.66s2.07-.22,3.03-.66c.96-.44,1.8-1.04,2.52-1.81.72-.76,1.29-1.64,1.7-2.63.41-.99.61-2.04.61-3.13s-.2-2.09-.61-3.08c-.41-.99-.97-1.86-1.7-2.6-.73-.74-1.57-1.34-2.52-1.78-.96-.44-1.97-.66-3.03-.66s-2.13.22-3.11.66c-.97.44-1.81,1.04-2.52,1.78-.71.74-1.28,1.61-1.7,2.6s-.64,2.02-.64,3.08Z"/>
    <path class="cls-1" d="M257.32,103.35h7.38l5.26,15.88,4.3-13.28c.28-.96.73-1.7,1.35-2.23.62-.53,1.35-.8,2.2-.8s1.53.27,2.15.8c.62.53,1.07,1.27,1.35,2.23l4.25,13.28,5.26-15.88h7.38l-9.08,24.33c-.64,1.77-1.73,2.66-3.29,2.66s-2.76-.88-3.4-2.66l-4.67-13.49-4.67,13.49c-.6,1.77-1.72,2.66-3.35,2.66s-2.71-.88-3.35-2.66l-9.08-24.33Z"/>
  </g>
</svg>